<svg xmlns="http://www.w3.org/2000/svg" xmlns:xlink="http://www.w3.org/1999/xlink" viewBox="0 0 38.18 47.74"><defs><style>.cls-1{fill:url(#未命名的渐变_3);}.cls-2{fill:url(#未命名的渐变_4);}.cls-3{fill-rule:evenodd;fill:url(#未命名的渐变_3-2);}.cls-4{fill:url(#未命名的渐变_4-2);}</style><linearGradient id="未命名的渐变_3" x1="12.21" y1="57.42" x2="28.05" y2="17.42" gradientTransform="matrix(1, 0, 0, -1, 0, 65.81)" gradientUnits="userSpaceOnUse"><stop offset="0" stop-color="#68e8e0"/><stop offset="0.41" stop-color="#4ebae8"/><stop offset="0.68" stop-color="#3892f0"/><stop offset="1" stop-color="#2a79f4"/></linearGradient><linearGradient id="未命名的渐变_4" x1="9.19" y1="52.96" x2="17.41" y2="32.75" gradientTransform="matrix(1, 0, 0, -1, 0, 65.81)" gradientUnits="userSpaceOnUse"><stop offset="0" stop-color="#2970ff"/><stop offset="1" stop-color="#0040c1"/></linearGradient><linearGradient id="未命名的渐变_3-2" x1="10.07" y1="47.33" x2="21.49" y2="36.4" xlink:href="#未命名的渐变_3"/><linearGradient id="未命名的渐变_4-2" x1="3.67" y1="56.9" x2="10.27" y2="42.4" xlink:href="#未命名的渐变_4"/></defs><g id="图层_2" data-name="图层 2"><g id="图层_1-2" data-name="图层 1"><path class="cls-1" d="M2.57,14.26a8,8,0,0,1,8-8H30.18a8,8,0,0,1,8,8V39.74a8,8,0,0,1-8,8H5.57a3,3,0,0,1-3-3Z"/><path class="cls-2" d="M29.19,15.07V34.34C26.62,35.81,7,47.74,7,47.74H2.57v-5l.18-20.56S10.28,1.3,20.38,1.3C28.45,1.3,29.19,13.23,29.19,15.07Z"/><path class="cls-3" d="M22.9,9.11l-1.63.94c0,.76,0,1.51,0,2.27a.72.72,0,0,1-.32.57L18,14.59V11.92l-1.63.95v6.45c0,1.14.65,1.14,1.3.76L21,18.2s.32-.18.32.19v3.8a.69.69,0,0,1-.32.56l-3.27,1.89a2.57,2.57,0,0,0-1.3,2.27v6.45L18,32.42V29.76L21,28.07s.32-.18.32.19c0,.76,0,1.52,0,2.28l1.63-.94v-3a.82.82,0,0,0-1.29-.77l-3.27,1.89s-.32.18-.33-.2v-.75a.76.76,0,0,1,.33-.59l3.26-1.87A3.15,3.15,0,0,0,22.9,22V16.69a.82.82,0,0,0-1.3-.76l-3.26,1.89c-.31.18-.33-.2-.33-.2v-.76a.7.7,0,0,1,.33-.56l3.27-1.89a3.17,3.17,0,0,0,1.29-2.27ZM8,38.18l1.63-.94c0-.76,0-1.51,0-2.27A.72.72,0,0,1,10,34.4l2.94-1.7v2.66l1.63-.94V28c0-1.14-.65-1.14-1.31-.77L10,29.09s-.32.18-.32-.19V25.1a.69.69,0,0,1,.32-.56l3.26-1.88a2.58,2.58,0,0,0,1.31-2.28V13.93l-1.63.94v2.66L10,19.22s-.32.18-.32-.19c0-.76,0-1.52,0-2.28L8,17.69v3a.82.82,0,0,0,1.29.77l3.27-1.89s.32-.18.32.19,0,.51,0,.76a.77.77,0,0,1-.33.58L9.32,23A3.16,3.16,0,0,0,8,25.28v5.31a.83.83,0,0,0,1.31.76l3.26-1.89c.31-.18.33.21.33.21,0,.25,0,.51,0,.76a.67.67,0,0,1-.32.56L9.31,32.88A3.17,3.17,0,0,0,8,35.14v3Z"/><path class="cls-4" d="M17.5,24.25.24,34.53S-.49,21.86.61,15.62C2.44,6.81,13.09-9.16,17.5,6.81,17.86,12,17.5,24.25,17.5,24.25Z"/></g></g></svg>