<svg width="42" height="42" viewBox="0 0 42 42" fill="none" xmlns="http://www.w3.org/2000/svg">
<mask id="mask0_1750_33541" style="mask-type:alpha" maskUnits="userSpaceOnUse" x="0" y="0" width="42" height="42">
<circle cx="21" cy="21" r="21" fill="#FCFCFC"/>
</mask>
<g mask="url(#mask0_1750_33541)">
<rect x="6.8252" y="37.2754" width="28.875" height="5.25" fill="#D90026"/>
<rect x="6.8252" y="37.2754" width="28.875" height="5.25" fill="#D90026"/>
<rect x="0.525391" y="26.7754" width="41.475" height="5.25" fill="#D90026"/>
<rect x="0.525391" y="26.7754" width="41.475" height="5.25" fill="#D90026"/>
<rect x="0.525391" y="15.75" width="41.475" height="5.25" fill="#D90026"/>
<rect x="0.525391" y="15.75" width="41.475" height="5.25" fill="#D90026"/>
<rect x="0.525391" y="5.25" width="41.475" height="5.25" fill="#D90026"/>
<rect x="0.525391" y="5.25" width="41.475" height="5.25" fill="#D90026"/>
<rect width="21.525" height="21" fill="#0052B5"/>
<path d="M17.3246 17.5873L15.7496 18.3748L16.2746 16.7998L15.2246 15.7498H16.7996L17.3246 14.1748L18.1121 15.7498H19.4246L18.3746 16.7998L18.8996 18.3748L17.3246 17.5873Z" fill="#EFEFEF"/>
<path d="M9.975 17.5873L8.4 18.3748L8.925 16.7998L7.875 15.7498H9.45L9.975 14.1748L10.7625 15.7498H12.075L11.025 16.7998L11.55 18.3748L9.975 17.5873Z" fill="#EFEFEF"/>
<path d="M2.62539 17.5873L1.05039 18.3748L1.57539 16.7998L0.525391 15.7498H2.10039L2.62539 14.1748L3.41289 15.7498H4.72539L3.67539 16.7998L4.20039 18.3748L2.62539 17.5873Z" fill="#EFEFEF"/>
<path d="M17.3246 11.8129L15.7496 12.6004L16.2746 11.0254L15.2246 9.97539H16.7996L17.3246 8.40039L18.1121 9.97539H19.4246L18.3746 11.0254L18.8996 12.6004L17.3246 11.8129Z" fill="#EFEFEF"/>
<path d="M17.3246 6.0375L15.7496 6.825L16.2746 5.25L15.2246 4.2H16.7996L17.3246 2.625L18.1121 4.2H19.4246L18.3746 5.25L18.8996 6.825L17.3246 6.0375Z" fill="#EFEFEF"/>
<path d="M17.3246 0.262109L15.7496 1.04961L16.2746 -0.525391L15.2246 -1.57539H16.7996L17.3246 -3.15039L18.1121 -1.57539H19.4246L18.3746 -0.525391L18.8996 1.04961L17.3246 0.262109Z" fill="#EFEFEF"/>
<path d="M9.975 6.0375L8.4 6.825L8.925 5.25L7.875 4.2H9.45L9.975 2.625L10.7625 4.2H12.075L11.025 5.25L11.55 6.825L9.975 6.0375Z" fill="#EFEFEF"/>
<path d="M9.975 11.8129L8.4 12.6004L8.925 11.0254L7.875 9.97539H9.45L9.975 8.40039L10.7625 9.97539H12.075L11.025 11.0254L11.55 12.6004L9.975 11.8129Z" fill="#EFEFEF"/>
<path d="M2.62539 11.8129L1.05039 12.6004L1.57539 11.0254L0.525391 9.97539H2.10039L2.62539 8.40039L3.41289 9.97539H4.72539L3.67539 11.0254L4.20039 12.6004L2.62539 11.8129Z" fill="#EFEFEF"/>
</g>
</svg>
