<svg width="42" height="42" viewBox="0 0 42 42" fill="none" xmlns="http://www.w3.org/2000/svg">
<path d="M21 42C9.40202 42 -5.06964e-07 32.598 0 21C5.06964e-07 9.40202 9.40202 -5.06964e-07 21 0C32.598 5.06964e-07 42 9.40202 42 21C42 32.598 32.598 42 21 42Z" fill="#D90026"/>
<path d="M24.11 13.1232L22.0458 12.9009L23.5701 11.673L23.1975 9.96241L24.7599 10.9659L26.2842 9.73799L26.0619 11.8021L27.3639 12.6384L25.6533 13.011L25.1706 14.9079L24.11 13.1232Z" fill="#FFDB44"/>
<path d="M11.55 24.7406L6.43125 27.3L8.1375 22.1812L4.725 18.7687H9.84375L11.55 13.65L14.1094 18.7687H18.375L14.9625 22.1812L16.6688 27.3L11.55 24.7406Z" fill="#FFDB44"/>
<path d="M24.11 28.8942L22.0458 29.1165L23.5701 30.3444L23.1975 32.055L24.7599 31.0515L26.2842 32.2794L26.0619 30.2153L27.3639 29.379L25.6533 29.0064L25.1706 27.1095L24.11 28.8942Z" fill="#FFDB44"/>
<path d="M29.0924 18.6745L27.1783 17.8707L28.9903 17.1305L29.1229 15.3848L30.3327 16.7935L32.1446 16.0533L31.3408 17.9675L32.349 19.1414L30.6033 19.0088L29.5979 20.6881L29.0924 18.6745Z" fill="#FFDB44"/>
<path d="M29.0924 24.5332L27.1783 25.337L28.9903 26.0772L29.1229 27.8229L30.3327 26.4142L32.1446 27.1544L31.3408 25.2403L32.349 24.0663L30.6033 24.1989L29.5979 22.5196L29.0924 24.5332Z" fill="#FFDB44"/>
</svg>
