<svg width="12" height="12" viewBox="0 0 12 12" fill="none" xmlns="http://www.w3.org/2000/svg">
<g clip-path="url(#clip0_1205_28948)">
<path fill-rule="evenodd" clip-rule="evenodd" d="M5.375 1.25C5.30596 1.25 5.25 1.30596 5.25 1.375V2.625C5.25 2.69404 5.30596 2.75 5.375 2.75H6.625C6.69404 2.75 6.75 2.69404 6.75 2.625V1.375C6.75 1.30596 6.69404 1.25 6.625 1.25H5.375ZM5.375 9.25C5.30596 9.25 5.25 9.30596 5.25 9.375V10.625C5.25 10.694 5.30596 10.75 5.375 10.75H6.625C6.69404 10.75 6.75 10.694 6.75 10.625V9.375C6.75 9.30596 6.69404 9.25 6.625 9.25H5.375ZM10.625 5.25C10.694 5.25 10.75 5.30596 10.75 5.375V6.625C10.75 6.69404 10.694 6.75 10.625 6.75H9.375C9.30596 6.75 9.25 6.69404 9.25 6.625V5.375C9.25 5.30596 9.30596 5.25 9.375 5.25H10.625ZM2.75 5.375C2.75 5.30596 2.69404 5.25 2.625 5.25H1.375C1.30596 5.25 1.25 5.30596 1.25 5.375V6.625C1.25 6.69404 1.30596 6.75 1.375 6.75H2.625C2.69404 6.75 2.75 6.69404 2.75 6.625V5.375ZM9.8007 8.74004C9.84951 8.78885 9.84951 8.868 9.8007 8.91682L8.91682 9.8007C8.868 9.84951 8.78886 9.84951 8.74004 9.8007L7.85616 8.91682C7.80734 8.868 7.80734 8.78885 7.85616 8.74004L8.74004 7.85616C8.78886 7.80734 8.868 7.80734 8.91682 7.85616L9.8007 8.74004ZM4.14385 3.25996C4.19266 3.21115 4.19266 3.132 4.14385 3.08318L3.25996 2.1993C3.21115 2.15049 3.132 2.15049 3.08319 2.1993L2.1993 3.08318C2.15049 3.132 2.15049 3.21115 2.1993 3.25996L3.08319 4.14385C3.132 4.19266 3.21115 4.19266 3.25996 4.14385L4.14385 3.25996ZM3.26003 9.8007C3.21122 9.84952 3.13207 9.84952 3.08326 9.8007L2.19937 8.91682C2.15056 8.868 2.15056 8.78886 2.19937 8.74004L3.08326 7.85616C3.13207 7.80734 3.21122 7.80734 3.26003 7.85616L4.14392 8.74004C4.19273 8.78886 4.19273 8.868 4.14392 8.91682L3.26003 9.8007ZM8.74011 4.14385C8.78893 4.19266 8.86807 4.19266 8.91689 4.14385L9.80077 3.25996C9.84959 3.21115 9.84959 3.132 9.80077 3.08319L8.91689 2.1993C8.86807 2.15049 8.78893 2.15049 8.74011 2.1993L7.85623 3.08319C7.80741 3.132 7.80741 3.21115 7.85623 3.25996L8.74011 4.14385ZM6 8.25C7.24264 8.25 8.25 7.24264 8.25 6C8.25 4.75736 7.24264 3.75 6 3.75C4.75736 3.75 3.75 4.75736 3.75 6C3.75 7.24264 4.75736 8.25 6 8.25Z" fill="#165DFF"/>
</g>
<defs>
<clipPath id="clip0_1205_28948">
<rect width="12" height="12" fill="white"/>
</clipPath>
</defs>
</svg>
