<svg width="12" height="13" viewBox="0 0 12 13" fill="none" xmlns="http://www.w3.org/2000/svg">
<path d="M11.7704 6.18257L10.0489 5.68953C9.27357 5.47049 8.56735 5.05572 7.99778 4.48491C7.4282 3.9141 7.01432 3.20635 6.79575 2.42939L6.30377 0.704063C6.27903 0.643699 6.23694 0.59207 6.18285 0.555735C6.12876 0.5194 6.06512 0.5 6 0.5C5.93488 0.5 5.87124 0.5194 5.81715 0.555735C5.76306 0.59207 5.72097 0.643699 5.69623 0.704063L5.20425 2.42939C4.98568 3.20635 4.5718 3.9141 4.00222 4.48491C3.43265 5.05572 2.72643 5.47049 1.95115 5.68953L0.229552 6.18257C0.163448 6.20138 0.105269 6.24128 0.0638414 6.29622C0.0224141 6.35116 0 6.41814 0 6.48701C0 6.55587 0.0224141 6.62285 0.0638414 6.6778C0.105269 6.73274 0.163448 6.77264 0.229552 6.79144L1.95115 7.28448C2.72643 7.50353 3.43265 7.9183 4.00222 8.48911C4.5718 9.05992 4.98568 9.76766 5.20425 10.5446L5.69623 12.2699C5.71499 12.3362 5.7548 12.3945 5.80962 12.436C5.86445 12.4775 5.93129 12.5 6 12.5C6.06872 12.5 6.13555 12.4775 6.19038 12.436C6.2452 12.3945 6.28501 12.3362 6.30377 12.2699L6.79575 10.5446C7.01432 9.76766 7.4282 9.05992 7.99778 8.48911C8.56735 7.9183 9.27357 7.50353 10.0489 7.28448L11.7704 6.79144C11.8366 6.77264 11.8947 6.73274 11.9362 6.6778C11.9776 6.62285 12 6.55587 12 6.48701C12 6.41814 11.9776 6.35116 11.9362 6.29622C11.8947 6.24128 11.8366 6.20138 11.7704 6.18257Z" fill="url(#paint0_linear_67_1872)"/>
<defs>
<linearGradient id="paint0_linear_67_1872" x1="8.5" y1="2.5" x2="1.66905" y2="6.77823" gradientUnits="userSpaceOnUse">
<stop stop-color="#D6E6FD"/>
<stop offset="1" stop-color="#6296FF"/>
</linearGradient>
</defs>
</svg>
