<svg width="91" height="106" viewBox="0 0 91 106" fill="none" xmlns="http://www.w3.org/2000/svg">
<g clip-path="url(#clip0_134_699)">
<path fill-rule="evenodd" clip-rule="evenodd" d="M90.25 0.06H80.36C80.36 3.95 80.39 7.85 80.36 11.75C80.35 13.64 78.39 13.7 78.39 13.7C72.45 13.7 66.52 13.7 60.59 13.7V0.02L50.69 0.03C50.69 11.09 50.69 22.15 50.69 33.19C50.69 39.04 54.65 41.01 58.61 41C65.2 41 71.79 41 78.39 41C78.39 41 80.36 41.04 80.36 42.95C80.36 49.45 80.36 55.94 80.36 62.45C80.36 64.36 78.39 64.4 78.39 64.4C71.79 64.4 65.2 64.4 58.61 64.4C54.65 64.39 50.69 66.35 50.69 72.2C50.69 83.26 50.69 94.33 50.69 105.39L60.59 105.4V91.69C66.52 91.69 72.45 91.69 78.39 91.69C78.39 91.69 80.35 91.77 80.36 93.65C80.39 97.55 80.36 101.46 80.36 105.36H90.25V89.75C90.26 85.85 86.3 81.95 82.41 81.95C75.8 81.95 69.18 81.95 62.57 81.95C62.57 81.95 60.65 81.95 60.62 80C60.62 78.71 60.61 77.4 60.59 76.11C60.59 76.11 60.68 74.08 62.57 74.07C69.15 74.1 75.75 74.11 82.35 74.12C86.3 74.15 90.26 70.25 90.26 66.34C90.26 57.24 90.26 48.14 90.26 39.04C90.26 35.14 86.3 31.25 82.35 31.26C75.76 31.28 69.16 31.3 62.57 31.3C60.69 31.3 60.59 29.28 60.59 29.28C60.6 27.97 60.62 26.68 60.62 25.39C60.64 23.44 62.57 23.44 62.57 23.44C69.19 23.44 75.8 23.44 82.41 23.44C86.3 23.44 90.26 19.55 90.25 15.64V0.06ZM0.01 105.33H9.9C9.9 101.42 9.86 97.53 9.9 93.64C9.9 91.76 11.87 91.68 11.87 91.68C17.79 91.68 23.74 91.68 29.66 91.68V105.36H39.55C39.55 94.3 39.55 83.24 39.55 72.18C39.55 66.33 35.6 64.38 31.64 64.38C25.05 64.38 18.47 64.38 11.87 64.38C11.87 64.38 9.9 64.35 9.9 62.44C9.9 55.95 9.9 49.45 9.9 42.94C9.9 41.03 11.87 41 11.87 41C18.47 41 25.05 41 31.64 41C35.6 41 39.55 39.03 39.55 33.18C39.55 22.12 39.55 11.06 39.55 0L29.66 0V13.69C23.73 13.69 17.79 13.69 11.87 13.69C11.87 13.69 9.9 13.63 9.9 11.74C9.86 7.83 9.9 3.94 9.9 0.03H0.01V15.64C0 19.54 3.95 23.44 7.84 23.44C14.46 23.44 21.08 23.44 27.69 23.44C27.69 23.44 29.61 23.44 29.64 25.38C29.64 26.68 29.65 27.97 29.65 29.28C29.65 29.28 29.58 31.3 27.69 31.3C21.1 31.29 14.51 31.27 7.91 31.26C3.96 31.24 0 35.14 0 39.04C0 48.15 0 57.24 0 66.34C0 70.24 3.96 74.14 7.92 74.11C14.51 74.11 21.11 74.09 27.7 74.08C29.59 74.08 29.66 76.11 29.66 76.11C29.66 77.4 29.65 78.7 29.65 80C29.62 81.95 27.7 81.95 27.7 81.95C21.08 81.95 14.47 81.95 7.85 81.95C3.97 81.95 0.01 85.84 0.02 89.73V105.33H0.01Z" fill="#E60012"/>
</g>
<defs>
<clipPath id="clip0_134_699">
<rect width="90.26" height="105.39" fill="white"/>
</clipPath>
</defs>
</svg>
